<svg width="176" height="47" viewBox="0 0 176 47" fill="none" xmlns="http://www.w3.org/2000/svg">
<g clip-path="url(#clip0_1_40)">
<path d="M45.1733 9.54696L24.2166 0.232867C23.5181 1.44874e-05 23.0524 1.44874e-05 22.3538 0.232867L1.39711 9.54696C0.465704 9.77981 0 10.7112 0 11.6426C0 12.574 0.465704 13.5054 1.39711 13.7383L22.3538 23.0524C22.5867 23.2852 23.0524 23.2852 23.2852 23.2852C23.5181 23.2852 23.9838 23.2852 24.2166 23.0524L45.1733 13.7383C46.1047 13.5054 46.5704 12.574 46.5704 11.6426C46.5704 10.7112 46.1047 9.77981 45.1733 9.54696Z" fill="#79A6ED"/>
<path d="M23.2308 32.6659C22.998 32.6659 22.5323 32.6659 22.2994 32.433L1.34272 23.1189C0.17846 22.6532 -0.287245 21.2561 0.17846 20.0919C0.644164 18.9276 2.04128 18.4619 3.20554 18.9276L23.2308 27.776L43.2561 18.9276C44.4204 18.4619 45.8175 18.9276 46.2832 20.0919C46.7489 21.2561 46.2832 22.6532 45.1189 23.1189L24.1622 32.433C23.9294 32.6659 23.4637 32.6659 23.2308 32.6659Z" fill="#4B88E7"/>
<path d="M23.2308 42.9477C22.998 42.9477 22.5323 42.9477 22.2994 42.7148L1.34272 33.4007C0.17846 32.935 -0.287245 31.5379 0.17846 30.3736C0.644164 29.2094 2.04128 28.7437 3.20554 29.2094L23.2308 38.0578L43.2561 29.2094C44.4204 28.7437 45.8175 29.2094 46.2832 30.3736C46.7489 31.5379 46.2832 32.935 45.1189 33.4007L24.1622 42.7148C23.9294 42.9477 23.4637 42.9477 23.2308 42.9477Z" fill="#4B88E7"/>
</g>
<path d="M58.3844 30.5429C57.3028 30.5429 56.321 30.3844 55.4391 30.0673C54.5738 29.7502 53.8832 29.358 53.3674 28.8906C52.8682 28.4066 52.6186 27.9226 52.6186 27.4386C52.6186 27.205 52.6768 26.9546 52.7933 26.6876C52.9264 26.4038 53.1012 26.1702 53.3175 25.9866C53.5338 25.7863 53.7751 25.6862 54.0413 25.6862C54.3076 25.6862 54.5572 25.7863 54.7901 25.9866C55.0231 26.1702 55.2893 26.3955 55.5889 26.6625C55.8884 26.9129 56.2545 27.1382 56.6871 27.3385C57.1197 27.5221 57.6522 27.6139 58.2846 27.6139C58.7838 27.6139 59.2414 27.5388 59.6574 27.3885C60.09 27.2216 60.4311 26.9796 60.6807 26.6625C60.947 26.3454 61.0801 25.9365 61.0801 25.4358C61.0801 24.9017 60.9387 24.4511 60.6558 24.0839C60.3729 23.7168 59.9902 23.3997 59.5076 23.1326C59.025 22.8656 58.5009 22.6069 57.9351 22.3565C57.3694 22.1062 56.7953 21.8391 56.2129 21.5554C55.6471 21.2717 55.1229 20.9295 54.6404 20.529C54.1744 20.1284 53.7917 19.6361 53.4922 19.0519C53.2093 18.4678 53.0679 17.7501 53.0679 16.8989C53.0679 15.9643 53.2426 15.1799 53.592 14.5456C53.9581 13.9114 54.4324 13.4024 55.0148 13.0185C55.6138 12.618 56.2711 12.3342 56.9866 12.1673C57.7022 11.9837 58.4177 11.892 59.1332 11.892C59.5159 11.892 59.9652 11.9253 60.4811 11.9921C61.0135 12.0422 61.5377 12.1423 62.0536 12.2925C62.586 12.4427 63.0187 12.6513 63.3515 12.9184C63.7009 13.1687 63.8756 13.5025 63.8756 13.9198C63.8756 14.1034 63.8257 14.3287 63.7259 14.5957C63.6427 14.8628 63.5012 15.1048 63.3016 15.3217C63.1185 15.5387 62.8772 15.6472 62.5777 15.6472C62.3115 15.6472 62.0452 15.5721 61.779 15.4219C61.5294 15.255 61.1966 15.0964 60.7806 14.9462C60.3812 14.7793 59.8321 14.6959 59.1332 14.6959C58.5508 14.6959 58.0433 14.771 57.6106 14.9212C57.178 15.0714 56.8535 15.2884 56.6372 15.5721C56.4209 15.8391 56.3127 16.1813 56.3127 16.5985C56.3127 17.0324 56.4541 17.3996 56.737 17.7C57.0365 18.0005 57.4193 18.2675 57.8852 18.5012C58.3678 18.7348 58.8919 18.9685 59.4577 19.2021C60.0235 19.4358 60.5892 19.7112 61.155 20.0283C61.7374 20.3287 62.2699 20.6959 62.7524 21.1298C63.235 21.5638 63.6177 22.1062 63.9006 22.7571C64.1835 23.3913 64.3249 24.1757 64.3249 25.1104C64.3249 26.2954 64.067 27.2968 63.5512 28.1146C63.0353 28.9157 62.3281 29.5249 61.4295 29.9421C60.5476 30.3427 59.5326 30.5429 58.3844 30.5429Z" fill="#293041"/>
<path d="M70.876 30.3176C69.3784 30.3176 68.2302 29.9922 67.4315 29.3413C66.6494 28.6904 66.2584 27.6556 66.2584 26.2369V14.1201C66.2584 13.8196 66.4331 13.5776 66.7825 13.394C67.132 13.2105 67.4897 13.1187 67.8558 13.1187C68.2552 13.1187 68.6213 13.2105 68.9541 13.394C69.3035 13.5776 69.4782 13.8196 69.4782 14.1201V18.4261H72.4235C72.6898 18.4261 72.8895 18.5512 73.0226 18.8016C73.1723 19.0352 73.2472 19.3023 73.2472 19.6027C73.2472 19.9031 73.1723 20.1785 73.0226 20.4288C72.8895 20.6625 72.6898 20.7793 72.4235 20.7793H69.4782V26.2369C69.4782 26.7376 69.5781 27.0881 69.7778 27.2884C69.9941 27.4887 70.3602 27.5888 70.876 27.5888H71.8495C72.3154 27.5888 72.6565 27.7307 72.8728 28.0144C73.1058 28.2981 73.2223 28.6069 73.2223 28.9407C73.2223 29.2912 73.1058 29.6083 72.8728 29.892C72.6565 30.1758 72.3154 30.3176 71.8495 30.3176H70.876Z" fill="#293041"/>
<path d="M77.4343 30.5429C76.5524 30.5429 75.7869 30.2759 75.138 29.7418C74.5056 29.1911 74.1895 28.3482 74.1895 27.2133C74.1895 26.262 74.4308 25.5193 74.9133 24.9852C75.4125 24.4511 76.0948 24.0756 76.9601 23.8586C77.842 23.6417 78.857 23.5332 80.0052 23.5332H81.0286V23.2077C81.0286 22.8405 80.9537 22.4817 80.8039 22.1312C80.6708 21.7807 80.4462 21.4887 80.13 21.255C79.8305 21.0213 79.3978 20.9045 78.8321 20.9045C78.1998 20.9045 77.7089 20.9713 77.3594 21.1048C77.0266 21.2216 76.7687 21.3468 76.5857 21.4803C76.4026 21.6138 76.2029 21.6806 75.9866 21.6806C75.6372 21.6806 75.3626 21.5053 75.1629 21.1549C74.9799 20.8044 74.8884 20.4455 74.8884 20.0784C74.8884 19.7279 75.0964 19.4191 75.5124 19.1521C75.945 18.8683 76.4692 18.6514 77.0849 18.5012C77.7005 18.351 78.2996 18.2758 78.882 18.2758C80.1799 18.2758 81.2199 18.5095 82.002 18.9768C82.7841 19.4441 83.3499 20.045 83.6993 20.7793C84.0654 21.5137 84.2484 22.3065 84.2484 23.1577V29.2662C84.2484 29.5666 84.0987 29.8169 83.7992 30.0172C83.4996 30.2175 83.1252 30.3176 82.6759 30.3176C82.2599 30.3176 81.9105 30.2175 81.6276 30.0172C81.3614 29.8169 81.2283 29.5666 81.2283 29.2662V28.5652C80.779 29.0826 80.2465 29.5415 79.6308 29.9421C79.0318 30.3427 78.2996 30.5429 77.4343 30.5429ZM78.7322 28.1396C79.0817 28.1396 79.4311 28.0228 79.7806 27.7891C80.13 27.5554 80.4212 27.255 80.6542 26.8878C80.9038 26.5207 81.0286 26.1368 81.0286 25.7362V25.2105H80.6542C80.105 25.2105 79.5809 25.2439 79.0817 25.3107C78.5825 25.3774 78.1748 25.5276 77.8586 25.7613C77.5591 25.9782 77.4093 26.3204 77.4093 26.7877C77.4093 27.255 77.5341 27.5972 77.7837 27.8141C78.05 28.0311 78.3662 28.1396 78.7322 28.1396Z" fill="#293041"/>
<path d="M91.6542 30.5429C90.3896 30.5429 89.3579 30.3176 88.5591 29.867C87.7604 29.4164 87.1697 28.8072 86.787 28.0395C86.4042 27.255 86.2129 26.3788 86.2129 25.4108V23.408C86.2129 22.44 86.3959 21.5721 86.762 20.8044C87.1447 20.0199 87.7355 19.4024 88.5342 18.9518C89.3496 18.5012 90.3729 18.2758 91.6043 18.2758C92.3864 18.2758 93.0769 18.3676 93.676 18.5512C94.275 18.7348 94.7493 18.9768 95.0987 19.2772C95.4482 19.5777 95.6229 19.8948 95.6229 20.2286C95.6229 20.4288 95.5646 20.6542 95.4482 20.9045C95.3483 21.1382 95.1986 21.3468 94.9989 21.5304C94.8158 21.714 94.5995 21.8058 94.3499 21.8058C94.1669 21.8058 93.9755 21.7474 93.7758 21.6305C93.5928 21.5137 93.3515 21.3969 93.052 21.28C92.7525 21.1632 92.3531 21.1048 91.8539 21.1048C91.0052 21.1048 90.3896 21.3134 90.0068 21.7307C89.6241 22.1312 89.4328 22.6903 89.4328 23.408V25.4108C89.4328 26.1285 89.6241 26.6959 90.0068 27.1132C90.3896 27.5137 91.0136 27.714 91.8789 27.714C92.3947 27.714 92.7941 27.6472 93.0769 27.5137C93.3598 27.3802 93.5928 27.255 93.7758 27.1382C93.9755 27.0214 94.1752 26.963 94.3749 26.963C94.6744 26.963 94.924 27.0464 95.1237 27.2133C95.34 27.3802 95.4981 27.5888 95.5979 27.8392C95.7144 28.0728 95.7726 28.2898 95.7726 28.4901C95.7726 28.8239 95.5896 29.1493 95.2235 29.4664C94.8741 29.7836 94.3832 30.0422 93.7509 30.2425C93.1352 30.4428 92.4363 30.5429 91.6542 30.5429Z" fill="#293041"/>
<path d="M99.0329 30.3176C98.5836 30.3176 98.2092 30.2091 97.9097 29.9922C97.6101 29.7752 97.4604 29.5332 97.4604 29.2662V12.4928C97.4604 12.1924 97.6101 11.9504 97.9097 11.7668C98.2092 11.5832 98.5836 11.4914 99.0329 11.4914C99.4988 11.4914 99.8898 11.5832 100.206 11.7668C100.522 11.9504 100.68 12.1924 100.68 12.4928V22.9824L105.398 18.5512C105.564 18.3843 105.772 18.3009 106.022 18.3009C106.271 18.3009 106.513 18.3843 106.746 18.5512C106.995 18.7014 107.195 18.8934 107.345 19.127C107.511 19.3607 107.594 19.6027 107.594 19.853C107.594 19.9532 107.569 20.0617 107.519 20.1785C107.486 20.2786 107.42 20.3704 107.32 20.4539L104.374 23.1326L108.068 28.3899C108.185 28.5735 108.243 28.7488 108.243 28.9157C108.243 29.166 108.143 29.4164 107.944 29.6667C107.744 29.9171 107.503 30.1257 107.22 30.2926C106.937 30.4428 106.662 30.5179 106.396 30.5179C106.063 30.5179 105.797 30.376 105.597 30.0923L102.253 25.1354L100.68 26.5374V29.2662C100.68 29.5332 100.522 29.7752 100.206 29.9922C99.8898 30.2091 99.4988 30.3176 99.0329 30.3176Z" fill="#293041"/>
<path d="M115.465 30.4678C114.367 30.4678 113.377 30.2842 112.495 29.9171C111.613 29.5332 110.906 28.924 110.374 28.0895C109.858 27.2383 109.6 26.1118 109.6 24.7098V17.7751C109.6 16.3732 109.858 15.255 110.374 14.4205C110.906 13.5693 111.605 12.9601 112.47 12.5929C113.352 12.2091 114.317 12.0171 115.366 12.0171C116.53 12.0171 117.554 12.2091 118.436 12.5929C119.334 12.9768 120.042 13.5276 120.557 14.2452C121.073 14.9629 121.331 15.8224 121.331 16.8238C121.331 17.4414 121.198 17.8586 120.932 18.0756C120.666 18.2758 120.258 18.376 119.709 18.376C119.276 18.376 118.902 18.3009 118.585 18.1507C118.269 18.0005 118.103 17.7334 118.086 17.3496C118.07 16.949 117.986 16.5651 117.837 16.198C117.704 15.8141 117.454 15.497 117.088 15.2466C116.738 14.9963 116.198 14.8711 115.465 14.8711C114.65 14.8711 114.009 15.1131 113.544 15.5971C113.094 16.0644 112.87 16.7904 112.87 17.7751V24.7098C112.87 25.6945 113.094 26.4289 113.544 26.9129C114.009 27.3802 114.65 27.6139 115.465 27.6139C116.281 27.6139 116.921 27.3802 117.387 26.9129C117.853 26.4289 118.086 25.6945 118.086 24.7098V23.2578H116.065C115.748 23.2578 115.499 23.1243 115.316 22.8572C115.149 22.5902 115.066 22.2981 115.066 21.981C115.066 21.6639 115.149 21.3718 115.316 21.1048C115.499 20.8378 115.748 20.7042 116.065 20.7042H120.308C120.641 20.7042 120.89 20.8127 121.057 21.0297C121.24 21.23 121.331 21.4803 121.331 21.7807V24.7098C121.331 26.1118 121.073 27.2383 120.557 28.0895C120.042 28.924 119.334 29.5332 118.436 29.9171C117.554 30.2842 116.564 30.4678 115.465 30.4678Z" fill="#293041"/>
<path d="M126.185 30.5429C125.303 30.5429 124.537 30.2759 123.888 29.7418C123.256 29.1911 122.94 28.3482 122.94 27.2133C122.94 26.262 123.181 25.5193 123.664 24.9852C124.163 24.4511 124.845 24.0756 125.71 23.8586C126.592 23.6417 127.607 23.5332 128.756 23.5332H129.779V23.2077C129.779 22.8405 129.704 22.4817 129.554 22.1312C129.421 21.7807 129.197 21.4887 128.88 21.255C128.581 21.0213 128.148 20.9045 127.582 20.9045C126.95 20.9045 126.459 20.9713 126.11 21.1048C125.777 21.2216 125.519 21.3468 125.336 21.4803C125.153 21.6138 124.953 21.6806 124.737 21.6806C124.388 21.6806 124.113 21.5053 123.913 21.1549C123.73 20.8044 123.639 20.4455 123.639 20.0784C123.639 19.7279 123.847 19.4191 124.263 19.1521C124.695 18.8683 125.22 18.6514 125.835 18.5012C126.451 18.351 127.05 18.2758 127.632 18.2758C128.93 18.2758 129.97 18.5095 130.752 18.9768C131.535 19.4441 132.1 20.045 132.45 20.7793C132.816 21.5137 132.999 22.3065 132.999 23.1577V29.2662C132.999 29.5666 132.849 29.8169 132.55 30.0172C132.25 30.2175 131.876 30.3176 131.426 30.3176C131.01 30.3176 130.661 30.2175 130.378 30.0172C130.112 29.8169 129.979 29.5666 129.979 29.2662V28.5652C129.529 29.0826 128.997 29.5415 128.381 29.9421C127.782 30.3427 127.05 30.5429 126.185 30.5429ZM127.483 28.1396C127.832 28.1396 128.182 28.0228 128.531 27.7891C128.88 27.5554 129.172 27.255 129.405 26.8878C129.654 26.5207 129.779 26.1368 129.779 25.7362V25.2105H129.405C128.855 25.2105 128.331 25.2439 127.832 25.3107C127.333 25.3774 126.925 25.5276 126.609 25.7613C126.31 25.9782 126.16 26.3204 126.16 26.7877C126.16 27.255 126.285 27.5972 126.534 27.8141C126.8 28.0311 127.117 28.1396 127.483 28.1396Z" fill="#293041"/>
<path d="M136.985 30.3176C136.519 30.3176 136.136 30.2091 135.837 29.9922C135.537 29.7752 135.388 29.5332 135.388 29.2662V19.4275C135.388 19.127 135.537 18.885 135.837 18.7014C136.136 18.5179 136.519 18.4261 136.985 18.4261C137.384 18.4261 137.717 18.5179 137.983 18.7014C138.266 18.885 138.408 19.127 138.408 19.4275V20.1785C138.691 19.6945 139.107 19.2606 139.656 18.8767C140.205 18.4761 140.896 18.2758 141.728 18.2758C142.443 18.2758 143.075 18.5095 143.624 18.9768C144.174 19.4441 144.581 20.045 144.848 20.7793C145.28 19.9282 145.829 19.3023 146.495 18.9017C147.177 18.4845 147.876 18.2758 148.592 18.2758C149.357 18.2758 150.073 18.4761 150.738 18.8767C151.42 19.2606 151.97 19.8364 152.386 20.6041C152.818 21.3551 153.034 22.2731 153.034 23.3579V29.2662C153.034 29.5332 152.876 29.7752 152.56 29.9922C152.244 30.2091 151.861 30.3176 151.412 30.3176C150.979 30.3176 150.605 30.2091 150.289 29.9922C149.973 29.7752 149.815 29.5332 149.815 29.2662V23.3579C149.815 22.8572 149.715 22.44 149.515 22.1062C149.332 21.7724 149.082 21.522 148.766 21.3551C148.45 21.1715 148.126 21.0798 147.793 21.0798C147.477 21.0798 147.169 21.1715 146.869 21.3551C146.57 21.522 146.32 21.7724 146.121 22.1062C145.921 22.44 145.821 22.8489 145.821 23.3329V29.2912C145.821 29.6584 145.646 29.9254 145.297 30.0923C144.964 30.2425 144.598 30.3176 144.199 30.3176C143.832 30.3176 143.475 30.2425 143.125 30.0923C142.776 29.9254 142.601 29.6584 142.601 29.2912V23.3579C142.601 22.8906 142.501 22.4901 142.302 22.1563C142.119 21.8225 141.869 21.5638 141.553 21.3802C141.253 21.1966 140.929 21.1048 140.579 21.1048C140.247 21.1048 139.93 21.1882 139.631 21.3551C139.331 21.522 139.082 21.7724 138.882 22.1062C138.699 22.44 138.607 22.8572 138.607 23.3579V29.2662C138.607 29.5332 138.449 29.7752 138.133 29.9922C137.817 30.2091 137.434 30.3176 136.985 30.3176Z" fill="#293041"/>
<path d="M161.015 30.5429C159.834 30.5429 158.785 30.3343 157.87 29.9171C156.972 29.4831 156.264 28.8823 155.749 28.1146C155.233 27.3301 154.975 26.4289 154.975 25.4108V23.2828C154.975 22.3816 155.216 21.5554 155.699 20.8044C156.198 20.0366 156.855 19.4275 157.67 18.9768C158.502 18.5095 159.426 18.2758 160.441 18.2758C161.373 18.2758 162.222 18.4761 162.987 18.8767C163.769 19.2772 164.401 19.828 164.884 20.529C165.367 21.23 165.608 22.0478 165.608 22.9824C165.608 23.7001 165.491 24.2175 165.258 24.5346C165.025 24.835 164.726 25.0269 164.36 25.1104C164.01 25.1771 163.644 25.2105 163.262 25.2105H158.195V25.586C158.195 26.3037 158.461 26.8878 158.993 27.3385C159.542 27.7724 160.25 27.9894 161.115 27.9894C161.664 27.9894 162.122 27.9059 162.488 27.739C162.854 27.5721 163.17 27.4136 163.436 27.2634C163.703 27.1132 163.952 27.0381 164.185 27.0381C164.435 27.0381 164.651 27.1215 164.834 27.2884C165.017 27.4553 165.159 27.6556 165.258 27.8892C165.358 28.1062 165.408 28.2981 165.408 28.465C165.408 28.7488 165.225 29.0575 164.859 29.3913C164.51 29.7084 164.002 29.9838 163.336 30.2175C162.687 30.4345 161.914 30.5429 161.015 30.5429ZM158.195 23.3079H161.839C162.122 23.3079 162.313 23.2661 162.413 23.1827C162.529 23.0825 162.588 22.899 162.588 22.6319C162.588 22.248 162.479 21.9059 162.263 21.6055C162.063 21.3051 161.797 21.0714 161.464 20.9045C161.148 20.7376 160.79 20.6542 160.391 20.6542C160.008 20.6542 159.651 20.7376 159.318 20.9045C158.985 21.0547 158.71 21.28 158.494 21.5805C158.294 21.8642 158.195 22.2063 158.195 22.6069V23.3079Z" fill="#293041"/>
<path d="M171.407 30.5429C170.575 30.5429 169.81 30.4428 169.111 30.2425C168.429 30.0256 167.888 29.7502 167.489 29.4164C167.106 29.0826 166.915 28.7404 166.915 28.3899C166.915 28.2064 166.956 28.0061 167.039 27.7891C167.139 27.5721 167.264 27.3802 167.414 27.2133C167.58 27.0464 167.771 26.963 167.988 26.963C168.221 26.963 168.462 27.0631 168.712 27.2634C168.978 27.447 169.302 27.6305 169.685 27.8141C170.084 27.9977 170.634 28.0895 171.332 28.0895C172.081 28.0895 172.572 27.9727 172.805 27.739C173.055 27.5054 173.18 27.2634 173.18 27.013C173.18 26.6458 173.03 26.3621 172.73 26.1618C172.447 25.9616 172.081 25.803 171.632 25.6862C171.183 25.5527 170.7 25.4108 170.184 25.2606C169.685 25.1104 169.211 24.9184 168.762 24.6848C168.312 24.4344 167.946 24.1006 167.663 23.6834C167.38 23.2494 167.239 22.6903 167.239 22.006C167.239 21.4052 167.38 20.8211 167.663 20.2536C167.946 19.6861 168.412 19.2188 169.061 18.8516C169.71 18.4678 170.592 18.2758 171.707 18.2758C172.389 18.2758 173.03 18.351 173.629 18.5012C174.244 18.6347 174.744 18.8266 175.126 19.077C175.509 19.3273 175.701 19.6027 175.701 19.9031C175.701 20.0533 175.651 20.2536 175.551 20.504C175.451 20.7376 175.309 20.9546 175.126 21.1549C174.96 21.3551 174.752 21.4553 174.502 21.4553C174.319 21.4553 174.095 21.3969 173.828 21.28C173.579 21.1465 173.288 21.0213 172.955 20.9045C172.622 20.7877 172.223 20.7293 171.757 20.7293C171.341 20.7293 171.008 20.7877 170.758 20.9045C170.509 21.0213 170.326 21.1632 170.209 21.3301C170.093 21.497 170.035 21.6722 170.035 21.8558C170.035 22.1563 170.176 22.3899 170.459 22.5568C170.742 22.7237 171.108 22.8656 171.557 22.9824C172.023 23.0992 172.506 23.2328 173.005 23.383C173.521 23.5165 174.003 23.7168 174.452 23.9838C174.918 24.2508 175.293 24.618 175.576 25.0853C175.859 25.536 176 26.1285 176 26.8628C176 27.981 175.601 28.8739 174.802 29.5415C174.02 30.2091 172.888 30.5429 171.407 30.5429Z" fill="#293041"/>
<defs>
<clipPath id="clip0_1_40">
<rect width="46.5704" height="46.5704" fill="white"/>
</clipPath>
</defs>
</svg>
